<svg width="24" height="24" viewBox="0 0 24 24" fill="none" xmlns="http://www.w3.org/2000/svg">
<path d="M19.15 8C18.9755 7.69772 18.7249 7.44638 18.4232 7.27095C18.1214 7.09552 17.779 7.00211 17.43 7H15V5C15 4.73478 14.8946 4.48043 14.7071 4.29289C14.5196 4.10536 14.2652 4 14 4H4C3.46957 4 2.96086 4.21071 2.58579 4.58579C2.21071 4.96086 2 5.46957 2 6V16C2.00036 16.3507 2.09294 16.6952 2.26846 16.9988C2.44398 17.3025 2.69626 17.5546 3 17.73C2.9642 18.6583 3.29861 19.5627 3.92967 20.2444C4.56073 20.9261 5.43674 21.3292 6.365 21.365C7.29326 21.4008 8.19772 21.0664 8.87941 20.4353C9.56111 19.8043 9.9642 18.9283 10 18H13.1C13.2106 18.8367 13.6215 19.6047 14.2561 20.161C14.8908 20.7173 15.706 21.024 16.55 21.024C17.394 21.024 18.2092 20.7173 18.8439 20.161C19.4785 19.6047 19.8894 18.8367 20 18C20.5304 18 21.0391 17.7893 21.4142 17.4142C21.7893 17.0391 22 16.5304 22 16V13C21.9984 12.8176 21.9502 12.6386 21.86 12.48L19.15 8ZM15 9H17.43L19.23 12H15V9ZM6.5 19C6.20333 19 5.91332 18.912 5.66664 18.7472C5.41997 18.5824 5.22771 18.3481 5.11418 18.074C5.00065 17.7999 4.97094 17.4983 5.02882 17.2074C5.0867 16.9164 5.22956 16.6491 5.43934 16.4393C5.64912 16.2296 5.91639 16.0867 6.20736 16.0288C6.49834 15.9709 6.79994 16.0007 7.07403 16.1142C7.34811 16.2277 7.58238 16.42 7.7472 16.6666C7.91203 16.9133 8 17.2033 8 17.5C8 17.8978 7.84196 18.2794 7.56066 18.5607C7.27936 18.842 6.89782 19 6.5 19ZM16.5 19C16.2033 19 15.9133 18.912 15.6666 18.7472C15.42 18.5824 15.2277 18.3481 15.1142 18.074C15.0006 17.7999 14.9709 17.4983 15.0288 17.2074C15.0867 16.9164 15.2296 16.6491 15.4393 16.4393C15.6491 16.2296 15.9164 16.0867 16.2074 16.0288C16.4983 15.9709 16.7999 16.0007 17.074 16.1142C17.3481 16.2277 17.5824 16.42 17.7472 16.6666C17.912 16.9133 18 17.2033 18 17.5C18 17.8978 17.842 18.2794 17.5607 18.5607C17.2794 18.842 16.8978 19 16.5 19Z" fill="#1D3557"/>
<path fill-rule="evenodd" clip-rule="evenodd" d="M9.81915 9.18001C9.88269 9.11647 9.89602 9.01959 9.8681 8.93417C9.72144 8.48647 9.87602 7.91272 10.3014 7.4873C10.8612 6.9273 11.6783 6.83667 12.1264 7.28459C12.5744 7.73251 12.4835 8.54959 11.9235 9.10959C11.5031 9.5298 10.9381 9.68584 10.4927 9.54792C10.4081 9.52167 10.3131 9.53605 10.2504 9.59876L10.2004 9.64897C10.1285 9.72683 10.0407 9.78833 9.94299 9.8293C9.84526 9.87028 9.73986 9.88977 9.63394 9.88647L8.96227 9.86147C8.44894 9.84251 8.06477 10.3594 8.23519 10.8404L8.29206 11.0017C8.56081 11.7615 7.94956 12.5771 7.13915 12.5392L6.72998 12.5204C6.52831 12.511 6.36581 12.6979 6.40373 12.896L6.46831 13.2352C6.56977 13.7663 6.18915 14.2865 5.64873 14.3556L5.34456 14.3948C5.30474 14.3999 5.26431 14.3971 5.22556 14.3866C5.18682 14.3761 5.15053 14.358 5.11877 14.3335C5.087 14.3089 5.06038 14.2783 5.04043 14.2435C5.02048 14.2087 5.00758 14.1702 5.00248 14.1304C4.99738 14.0906 5.00017 14.0502 5.01069 14.0114C5.02122 13.9727 5.03927 13.9364 5.06382 13.9046C5.08837 13.8729 5.11893 13.8462 5.15377 13.8263C5.18861 13.8063 5.22703 13.7934 5.26685 13.7883L5.59394 13.7463C5.77415 13.7233 5.90102 13.5498 5.86727 13.3729L5.80269 13.0335C5.68915 12.4392 6.17602 11.8785 6.78123 11.9065L7.1906 11.9256C7.55894 11.9427 7.83685 11.5719 7.71456 11.2267L7.65748 11.0654C7.34144 10.1723 8.05498 9.21209 9.0081 9.24751L9.67977 9.27251C9.69491 9.27302 9.70998 9.27027 9.72396 9.26445C9.73795 9.25863 9.75051 9.24987 9.76081 9.23876L9.81915 9.18001Z" fill="white"/>
</svg>
