<svg width="100%" height="100%" viewBox="0 0 1515 1361" version="1.1" xmlns="http://www.w3.org/2000/svg" xmlns:xlink="http://www.w3.org/1999/xlink" xml:space="preserve" xmlns:serif="http://www.serif.com/" style="fill-rule:evenodd;clip-rule:evenodd;stroke-linejoin:round;stroke-miterlimit:2;"><path d="M705.234,1357.78l-76.669,-0l0,-590.074l62.352,0c6.246,0 11.393,5.122 11.425,11.368l2.892,578.706Z" style="fill:#295571;fill-rule:nonzero;"/><path d="M482.744,601.135l16.026,49.683l-97.194,44.873c-14.056,6.556 -30.553,5.36 -43.516,-3.155c-15.881,-10.535 -22.93,-30.447 -17.214,-48.627l52.078,-161.096c7.354,-23.297 31.958,-36.959 55.621,-30.886c19.402,4.917 33.099,22.517 33.099,42.533c-0,3.634 -0.452,7.254 -1.345,10.777c-0.112,0.442 -0.23,0.881 -0.356,1.319c-0.441,1.556 -0.966,3.088 -1.572,4.587l-48.044,113.026l52.417,-23.034Z" style="fill:#92b9ef;fill-rule:nonzero;"/><path d="M635.731,1360.9l-635.731,-0l0,-418.671l635.731,-1.563l-0,420.234Z" style="fill:#457b9d;fill-rule:nonzero;"/><path d="M384.466,1359.34l-384.466,0l0,-417.108l634.168,-0l0,94.156c-0.155,177.09 -112.778,322.752 -249.702,322.952Z" style="fill:#457b9d;fill-rule:nonzero;"/><path d="M677.548,784.469c-0.318,0.782 -0.565,1.611 -0.736,2.467l-21.851,109.432l-20.125,52.622l-615.354,5.546l-19.482,-12.302l38.208,-45.866l41.766,-103.799c1.843,-4.583 4.265,-8.732 7.163,-12.275c6.611,-8.082 15.354,-12.587 24.431,-12.587l558.206,0c4.823,0 8.793,5.158 8.793,11.425c-0,1.86 -0.35,3.692 -1.019,5.337Z" style="fill:#457b9d;fill-rule:nonzero;"/><path d="M635.731,1360.9l-634.522,-0l-1.209,-418.671l516.335,5.992l119.396,-0l-0,412.679Zm-634.531,-3.124l629.714,-3.014l-0,-400.404l-629.705,-6.889l-0.009,410.307Z" style="fill:#295571;fill-rule:nonzero;"/><path d="M678.567,840.45l-11.928,55.919l-630.125,-0l20.361,-46.544l621.692,-9.375Z" style="fill:#295571;fill-rule:nonzero;"/><path d="M475.589,1061.5c-3.327,-5.762 -8.104,-10.554 -13.855,-13.898c-5.754,-3.345 -12.281,-5.125 -18.935,-5.165l-46.324,-0l-0,-38.128c-0,-5.056 -2.01,-9.905 -5.584,-13.48c-3.575,-3.575 -8.425,-5.584 -13.48,-5.584l-190.638,0c-10.112,0 -19.81,4.017 -26.96,11.168c-7.15,7.15 -11.167,16.848 -11.167,26.96l-0,190.637c0.007,6.686 1.772,13.253 5.118,19.041c3.346,5.79 8.155,10.596 13.946,13.94c-0.683,17.696 5.692,34.938 17.723,47.933c12.03,12.996 28.73,20.681 46.426,21.363c17.696,0.683 34.939,-5.692 47.934,-17.723c12.996,-12.03 20.68,-28.729 21.363,-46.426l59.097,-0c2.109,15.95 9.942,30.591 22.04,41.196c12.1,10.606 27.641,16.452 43.73,16.452c16.09,0 31.631,-5.846 43.731,-16.452c12.098,-10.605 19.931,-25.246 22.039,-41.196c10.112,-0 19.809,-4.017 26.96,-11.168c7.151,-7.151 11.168,-16.848 11.168,-26.96l-0,-57.191c-0.031,-3.477 -0.95,-6.89 -2.669,-9.913l-51.663,-85.406Zm-79.114,19.064l46.324,0l34.315,57.191l-80.639,0l-0,-57.191Zm-162.042,190.637c-5.656,0 -11.185,-1.677 -15.887,-4.819c-4.703,-3.142 -8.368,-7.608 -10.532,-12.834c-2.165,-5.225 -2.731,-10.975 -1.628,-16.52c1.104,-5.548 3.827,-10.643 7.827,-14.643c3.999,-3.998 9.094,-6.722 14.641,-7.826c5.547,-1.104 11.297,-0.535 16.522,1.628c5.225,2.164 9.691,5.83 12.833,10.531c3.142,4.703 4.819,10.232 4.819,15.888c0,7.583 -3.013,14.858 -8.375,20.221c-5.363,5.362 -12.636,8.374 -20.22,8.374Zm190.637,0c-5.656,0 -11.185,-1.677 -15.888,-4.819c-4.701,-3.142 -8.367,-7.608 -10.53,-12.834c-2.166,-5.225 -2.732,-10.975 -1.628,-16.52c1.103,-5.548 3.828,-10.643 7.825,-14.643c4,-3.998 9.096,-6.722 14.643,-7.826c5.546,-1.104 11.295,-0.535 16.521,1.628c5.225,2.164 9.692,5.83 12.833,10.531c3.142,4.703 4.82,10.232 4.82,15.888c-0,7.583 -3.012,14.858 -8.375,20.221c-5.363,5.362 -12.637,8.374 -20.221,8.374Z" style="fill:#fff;fill-rule:nonzero;"/><path d="M297.708,1083.99c1.211,-1.212 1.466,-3.059 0.933,-4.687c-2.796,-8.535 0.151,-19.473 8.261,-27.583c10.671,-10.675 26.248,-12.403 34.791,-3.864c8.541,8.539 6.808,24.116 -3.868,34.791c-8.014,8.011 -18.786,10.986 -27.276,8.356c-1.613,-0.5 -3.424,-0.226 -4.62,0.97l-0.953,0.957c-1.371,1.484 -3.044,2.657 -4.907,3.438c-1.863,0.781 -3.872,1.152 -5.892,1.089l-12.804,-0.476c-9.786,-0.362 -17.11,9.492 -13.861,18.662l1.084,3.075c5.123,14.485 -6.529,30.033 -21.979,29.31l-7.8,-0.358c-3.845,-0.179 -6.942,3.384 -6.22,7.16l1.232,6.467c1.934,10.125 -5.322,20.042 -15.625,21.359l-5.798,0.747c-0.759,0.097 -1.53,0.044 -2.269,-0.156c-0.738,-0.2 -1.43,-0.545 -2.036,-1.012c-0.605,-0.469 -1.113,-1.053 -1.493,-1.716c-0.381,-0.664 -0.626,-1.398 -0.724,-2.156c-0.097,-0.759 -0.044,-1.529 0.157,-2.269c0.201,-0.738 0.545,-1.43 1.013,-2.036c0.468,-0.604 1.05,-1.113 1.714,-1.493c0.665,-0.381 1.397,-0.627 2.156,-0.724l6.236,-0.801c3.435,-0.438 5.854,-3.746 5.21,-7.118l-1.231,-6.47c-2.164,-11.33 7.117,-22.019 18.655,-21.485l7.804,0.364c7.022,0.326 12.32,-6.743 9.989,-13.324l-1.088,-3.075c-6.025,-17.026 7.577,-35.331 25.747,-34.656l12.805,0.477c0.289,0.01 0.576,-0.043 0.842,-0.154c0.267,-0.111 0.507,-0.278 0.703,-0.489l1.112,-1.12Z" style="fill:#457b9d;"/><path d="M1265.99,408.657l-56.915,-8.153c-19.249,32.188 -26.09,117.859 -26.09,117.859l-55.7,132.39c-6.95,4.72 -11.122,12.596 -11.122,20.998c0,13.925 11.459,25.384 25.384,25.384c13.926,0 25.384,-11.459 25.384,-25.384c0,-0.645 -0.024,-1.29 -0.073,-1.933l91.454,-154.096l7.678,-107.065Z" style="fill:#ffb8b8;fill-rule:nonzero;"/><path d="M1256.93,250.648c29.437,4.559 51.378,30.159 51.378,59.947c-0,6.875 -1.169,13.7 -3.456,20.183l-12.078,34.234c-0,-0 -6.575,103.078 -31.648,132.174l-76.939,-6.965c-0,0 14.067,-52.004 3.267,-77.165c-6.614,-15.41 -6.246,-68.632 0.271,-111.927c4.559,-29.349 30.088,-51.218 59.789,-51.218c3.153,-0 6.301,0.246 9.416,0.737Z" style="fill:#978883;fill-rule:nonzero;"/><path d="M1445.02,1320.2l-34.285,-0.003l-16.309,-132.241l50.6,0.003l-0.006,132.241Z" style="fill:#ffb6b6;fill-rule:nonzero;"/><path d="M1446.23,1355.96l-105.429,-0.004l0,-1.333c0.002,-22.511 18.525,-41.034 41.036,-41.035l0.003,-0l19.257,-14.61l35.931,14.612l9.203,0l-0.001,42.37Z" style="fill:#2f2e41;fill-rule:nonzero;"/><path d="M1295.97,1156.31l-31.669,13.128l-65.725,-115.903l46.744,-19.381l50.65,122.156Z" style="fill:#ffb6b6;fill-rule:nonzero;"/><path d="M1310.79,1188.88l-97.387,40.384l-0.511,-1.232c-8.622,-20.794 1.393,-45 22.186,-53.624l0.002,-0.001l12.192,-20.873l38.787,-0.267l8.502,-3.525l16.229,39.138Z" style="fill:#2f2e41;fill-rule:nonzero;"/><path d="M1484.22,567.94l-243.307,25.42l-32.547,109.618l-112.711,181.133l124.448,228.648l43.828,-39.338l-42.069,-184.636l125.566,-135.558l23.809,-9.88l18.9,503.024l69.907,1.148l30.591,-555.056c14.699,-49.033 10.275,-89.519 -6.415,-124.523Z" style="fill:#2f2e41;fill-rule:nonzero;"/><path d="M1395.02,220.917l-39.936,-44.967l-63.104,7.011l-40.4,56.541c-44.396,10.206 -73.443,53.913 -65.66,98.797c15.678,90.277 68.958,177.835 51.365,222.378c-26.705,67.615 -28.335,95.192 35.591,85.712c63.926,-9.479 278.091,-31.333 236.57,-72.855c-41.522,-41.521 -50.642,-110.906 -50.642,-110.906l-1.665,-158.74c0.778,-4.22 1.169,-8.503 1.169,-12.794c0,-35.97 -27.509,-66.474 -63.288,-70.177l-0,0Z" style="fill:#b59f97;fill-rule:nonzero;"/><circle cx="1316.98" cy="94.395" r="70.048" style="fill:#ffb8b8;"/><path d="M1403.29,90.235c-3.128,14.192 -8.77,27.711 -16.66,39.916c-2.095,4.161 -5.225,7.715 -9.088,10.318c-4.02,2.58 -9.36,1.912 -12.622,-1.578l-1.704,-1.388c3.342,-2.059 6.326,-4.649 8.836,-7.668c2.518,-3.071 3.401,-7.178 2.366,-11.012c-1.25,-3.853 -5.379,-6.058 -9.277,-4.954c-4.102,1.609 -6.595,7.541 -10.886,6.626c-3.471,-0.757 -4.197,-5.332 -4.197,-8.929c0.126,-18.807 -8.961,-45.533 -15.998,-44.712c-7.108,0.388 -14.227,-0.564 -20.983,-2.809c-6.765,-2.248 -13.902,-3.159 -21.015,-2.682c-0.505,0.063 -1.01,0.158 -1.546,0.253c-1.14,-3.573 -2.708,-6.996 -4.67,-10.192c0.221,3.859 0.031,7.73 -0.568,11.548c-5.66,2.333 -11.508,4.18 -17.481,5.522c-6.5,0.915 -20.794,20.353 -21.457,18.365c-1.14,-3.573 -2.708,-6.995 -4.67,-10.192c0.222,3.859 0.031,7.73 -0.567,11.549c-0.032,0.157 -0.032,0.284 -0.064,0.441c-3.155,-4.197 -5.08,-9.308 -4.007,-5.395c-10.571,-23.918 -6.469,-41.052 10.16,-61.215c3.241,-4.335 7.53,-7.777 12.464,-10.003c5.02,-2.205 10.844,-1.63 15.335,1.515c13.794,-12.646 33.428,-16.835 51.181,-10.918c17.323,6.027 30.67,9.561 33.321,27.736c14.326,-2.303 29.061,5.838 36.95,17.986c7.857,12.18 9.466,27.641 6.847,41.872Z" style="fill:#2f2e41;fill-rule:nonzero;"/><path d="M1346.48,672.05l-23.249,-0l-0,-178.935l18.908,-0c1.894,-0 3.454,1.553 3.464,3.447l0.877,175.488Z" style="fill:#295571;fill-rule:nonzero;"/><rect x="1075.74" y="545.565" width="249.667" height="127.432" style="fill:#457b9d;fill-rule:nonzero;"/><path d="M1227,672.523l-150.787,0l0,-126.484l248.72,-0l-0,28.552c-0.061,53.701 -44.232,97.872 -97.933,97.932Z" style="fill:#457b9d;fill-rule:nonzero;"/><path d="M1342.7,498.198c-0.125,0.237 -0.223,0.488 -0.29,0.748l-8.609,33.184l-9.338,17.686l-247.772,-0l-0,-4.405l14.106,-13.281l16.456,-31.476c0.727,-1.39 1.681,-2.648 2.823,-3.722c2.604,-2.451 6.049,-3.817 9.626,-3.817l219.935,-0c1.901,-0 3.464,1.564 3.464,3.464c0,0.564 -0.137,1.12 -0.401,1.619Z" style="fill:#295571;fill-rule:nonzero;"/><path d="M1325.41,672.997l-249.668,0l0,-127.432l249.668,-0l-0,127.432Zm-247.773,-1.895l245.877,-0l0,-123.642l-245.877,0l0,123.642Z" style="fill:#295571;fill-rule:nonzero;"/><path d="M1338.39,515.172l-4.597,16.959l-243.003,0l7.85,-14.116l239.75,-2.843Z" style="fill:#457b9d;fill-rule:nonzero;"/><rect x="1084.95" y="612.341" width="39.799" height="2.202" style="fill:#fff;"/><rect x="1084.95" y="620.05" width="39.799" height="2.202" style="fill:#fff;"/><rect x="1084.95" y="627.758" width="39.799" height="2.202" style="fill:#fff;"/><circle cx="1100.36" cy="573.492" r="14.316" style="fill:#fff;"/><path d="M1443.61,392.296l-56.915,-8.152c-19.249,32.187 -26.089,117.859 -26.089,117.859l-55.7,132.389c-6.951,4.721 -11.122,12.597 -11.122,20.999c-0,13.925 11.459,25.384 25.384,25.384c13.925,0 25.384,-11.459 25.384,-25.384c0,-0.645 -0.025,-1.29 -0.074,-1.933l91.454,-154.096l7.678,-107.066Z" style="fill:#ffb8b8;fill-rule:nonzero;"/><path d="M1412.77,234.288c29.437,4.559 51.378,30.159 51.378,59.947c-0,6.875 -1.169,13.7 -3.456,20.183l-12.078,34.234c-0,-0 15.214,103.077 -9.86,132.174l-76.939,-6.965c0,-0 14.067,-52.004 3.268,-77.166c-6.614,-15.409 -6.247,-68.631 0.27,-111.926c4.976,-33.06 14.379,-55.598 47.417,-50.481Z" style="fill:#978883;fill-rule:nonzero;"/><path d="M929.477,63.737c-57.518,28.686 -81.243,99.621 -52.557,157.138c28.879,57.906 133.238,156.665 216.501,171.587c-35.816,-108.75 13.984,-219.29 -6.805,-276.167c-22.213,-60.776 -99.233,-81.437 -157.139,-52.558Z" style="fill:#457b9d;fill-rule:nonzero;"/><circle id="ae913700-e609-4a21-8232-fca89ee691a9" cx="968.51" cy="163.245" r="38.211" style="fill:#fff;"/><circle id="e5607a81-7f0e-4105-ad7c-335322d1da37" cx="1092.69" cy="428.765" r="25.027" style="fill:#457b9d;"/><path d="M980.155,123.078c0.442,-0.015 0.884,-0.023 1.326,-0.023c20.962,0 38.211,17.249 38.211,38.211c-0,20.485 -16.474,37.512 -36.948,38.189c14.927,-5.552 24.887,-19.882 24.887,-35.809c-0,-20.959 -17.247,-38.205 -38.206,-38.205c-0.441,-0 -0.883,0.007 -1.324,0.023c3.863,-1.441 7.934,-2.246 12.054,-2.386Z" style="fill:#231f20;fill-opacity:0.2;fill-rule:nonzero;"/><path d="M1086.81,116.317c20.788,56.877 -29.011,167.417 6.805,276.167c-7.86,-1.447 -15.601,-3.474 -23.161,-6.063c-29.182,-105.127 16.619,-210.174 -3.466,-265.128c-17.977,-49.185 -71.848,-72.092 -122.435,-63.735c55.52,-18.935 121.9,3.064 142.257,58.759Z" style="fill:#231f20;fill-opacity:0.2;fill-rule:nonzero;"/><path d="M588.384,478.768c-16.718,1.094 -29.706,15.5 -29.069,32.241c0.089,1.646 0.314,3.281 0.672,4.89l-91.867,57.876l50.789,22.463l79.453,-58.404c13.438,-4.106 22.491,-16.849 21.944,-30.89c-0.764,-15.732 -13.916,-28.261 -29.667,-28.261c-0.481,-0 -0.961,0.011 -1.441,0.035c-0.272,0.013 -0.543,0.03 -0.814,0.05Z" style="fill:#996968;fill-rule:nonzero;"/><path d="M499.795,547.47l22.768,46.977l-90.024,57.931c-13.009,8.444 -29.513,9.549 -43.532,2.916c-17.19,-8.228 -26.935,-26.968 -23.798,-45.766l29.211,-166.766c4.048,-24.092 26.518,-41.037 50.794,-38.308c22.144,2.422 39.108,21.341 39.108,43.617c-0,1.593 -0.087,3.186 -0.26,4.769c-0.05,0.453 -0.106,0.905 -0.17,1.355c-0.22,1.603 -0.527,3.192 -0.919,4.762l-31.89,118.6l48.712,-30.087Z" style="fill:#92b9ef;fill-rule:nonzero;"/><rect x="377.449" y="620.296" width="128.744" height="128.744" style="fill:#ffb8b8;"/><path d="M811.51,999.457l49.169,-16.541l27.381,133.838l-33.319,11.206l-43.231,-128.503Z" style="fill:#996968;fill-rule:nonzero;"/><path d="M728.175,989.172l48.772,-17.681l30.488,133.163l-33.047,11.978l-46.213,-127.46Z" style="fill:#996968;fill-rule:nonzero;"/><path d="M382.067,782.675c-25.805,172.028 317.826,70.322 317.826,70.322l107.742,148.631l63.077,-11.469c0,0 -28.382,-89.227 -79.07,-208.841c-22.51,-53.119 -278.113,-40.14 -278.113,-40.14l-5.308,-41.651l-146.224,-2.867l20.07,86.015Z" style="fill:#2f2e41;fill-rule:nonzero;"/><path d="M630.287,864.529l79.461,-49.488c58.171,116.159 75.318,166.465 75.318,166.465l-54.994,15.465l-99.785,-132.442Z" style="fill:#2f2e41;fill-rule:nonzero;"/><path d="M455.615,411.086l-25.914,-33.309l-36.965,-1.603l-3.689,31.328l-18.316,8.446c-18.288,69.478 -21.113,142.13 -8.275,212.819c4.992,4.7 7.059,11.756 5.39,18.407l-1.187,4.734l0.11,0.173c3.896,6.148 5.219,13.588 3.681,20.702l-8.747,15.543c-3.706,6.6 -5.653,14.043 -5.653,21.613c-0,18.553 11.697,35.214 29.148,41.515c53.767,19.489 104.169,26.749 141.457,-27.94l11.724,-190.581l-82.764,-121.847Z" style="fill:#92b9ef;fill-rule:nonzero;"/><circle cx="428.468" cy="318.276" r="68.346" style="fill:#996968;"/><path d="M394.158,235.885c-28.939,0.556 -51.892,27.399 -51.266,59.955c-21.415,22.346 -26.603,132.255 -8.709,161.494c32.733,3.8 52.643,-77.183 81.349,-65.476l3.783,-17.674l8.572,23.016c7.295,3.363 14.535,7.054 21.72,11.075c5.164,-23.685 3.883,-46.706 -9.995,-66.758c-12.329,-17.815 17.675,-38.964 39.133,-35.975l-0.315,-16.361l5.39,16.264c8.364,6.146 17.617,3.921 27.105,-0.521c15.385,-79.963 -103.734,-101.83 -116.767,-69.039Z" style="fill:#2f2e41;fill-rule:nonzero;"/><path d="M839.598,1150.6l21.906,-2.861l1.208,-21.193l12.717,19.374l58.1,-7.59c6.529,-0.852 11.467,-6.476 11.467,-13.06c-0,-4.931 -2.769,-9.465 -7.155,-11.717l-50.584,-25.983l-2.731,-20.909l-48.421,9.287l3.493,74.652Z" style="fill:#2f2e41;fill-rule:nonzero;"/><path d="M781.738,1150.79l19.873,-9.65l-5.563,-20.485l18.196,14.351l52.709,-25.594c4.53,-2.2 7.419,-6.813 7.419,-11.849c-0,-6.475 -4.774,-12.037 -11.174,-13.019l-56.208,-8.631l-9.211,-18.969l-42.99,24.14l26.949,69.706Z" style="fill:#2f2e41;fill-rule:nonzero;"/><path d="M481.731,695.023l24.369,-0l-0,-187.555l-19.819,0c-1.985,0 -3.621,1.628 -3.631,3.613l-0.919,183.942Z" style="fill:#295571;fill-rule:nonzero;"/><rect x="503.822" y="562.445" width="261.695" height="133.571" style="fill:#fff;fill-rule:nonzero;"/><path d="M504.319,592.869l-0,-29.928l260.701,0l0,132.578l-158.051,0c-56.288,-0.064 -102.586,-46.362 -102.65,-102.65Z" style="fill:#f2f2f2;fill-rule:nonzero;"/><path d="M485.7,512.796c0.131,0.248 0.233,0.512 0.304,0.784l9.024,34.783l9.788,18.537l259.707,0l0,-4.617l-14.786,-13.92l-17.248,-32.993c-0.762,-1.456 -1.762,-2.775 -2.958,-3.901c-2.731,-2.569 -6.342,-4.001 -10.09,-4.001l-230.531,0c-1.992,0 -3.631,1.639 -3.631,3.631c0,0.592 0.145,1.174 0.421,1.697Z" style="fill:#457b9d;fill-rule:nonzero;"/><path d="M503.822,562.445l261.695,-0l-0,133.571l-261.695,-0l0,-133.571Zm259.708,131.584l-257.721,0l-0,-129.598l257.721,0l0,129.598Z" style="fill:#457b9d;fill-rule:nonzero;"/><path d="M490.207,530.588l4.822,17.775l254.709,-0l-8.231,-14.794l-251.3,-2.981Z" style="fill:#295571;fill-rule:nonzero;"/><rect x="714.15" y="632.438" width="41.717" height="2.308" style="fill:#fff;"/><rect x="714.15" y="640.518" width="41.717" height="2.308" style="fill:#fff;"/><rect x="714.15" y="648.597" width="41.717" height="2.309" style="fill:#fff;"/><circle cx="739.707" cy="591.717" r="15.005" style="fill:#fff;"/><path d="M580.012,545.396c-16.707,-1.237 -31.57,11.226 -33.263,27.894c-0.14,1.642 -0.145,3.293 -0.013,4.936l-99.013,44.563l47.18,29.295l86.791,-46.809c13.878,-2.2 24.612,-13.564 26.02,-27.544c1.476,-16.227 -10.662,-30.795 -26.889,-32.272c-0.271,-0.024 -0.542,-0.045 -0.813,-0.063Z" style="fill:#996968;fill-rule:nonzero;"/></svg>